<svg width="40" height="18" viewBox="0 0 40 18" fill="none" xmlns="http://www.w3.org/2000/svg">
<path d="M5 0.5C3.67392 0.5 2.40215 1.02678 1.46446 1.96447C0.526783 2.90215 -1.2815e-06 4.17392 -1.2815e-06 5.5V13C-1.2815e-06 14.3261 -0.937682 17.0623 -2.98023e-07 18C1.46447 18 3.67392 18 5 18H35C36.3261 18 38 18 40 18C40.5 17.5 40 14.3261 40 13V5.5C40 4.17392 39.4732 2.90215 38.5355 1.96447C37.5979 1.02678 36.3261 0.5 35 0.5H5ZM20 4.25C21.3261 4.25 22.5979 4.77678 23.5355 5.71447C24.4732 6.65215 25 7.92392 25 9.25C25 10.5761 24.4732 11.8479 23.5355 12.7855C22.5979 13.7232 21.3261 14.25 20 14.25C18.6739 14.25 17.4021 13.7232 16.4645 12.7855C15.5268 11.8479 15 10.5761 15 9.25C15 7.92392 15.5268 6.65215 16.4645 5.71447C17.4021 4.77678 18.6739 4.25 20 4.25ZM31.25 10.5C30.9185 10.5 30.6005 10.3683 30.3661 10.1339C30.1317 9.89946 30 9.58152 30 9.25C30 8.91848 30.1317 8.60054 30.3661 8.36612C30.6005 8.1317 30.9185 8 31.25 8C31.5815 8 31.8995 8.1317 32.1339 8.36612C32.3683 8.60054 32.5 8.91848 32.5 9.25C32.5 9.58152 32.3683 9.89946 32.1339 10.1339C31.8995 10.3683 31.5815 10.5 31.25 10.5Z" fill="white"/>
<g clip-path="url(#clip0_0_1)">
<path d="M20.5 14.1704C23.0793 14.1704 25.1702 12.0794 25.1702 9.50009C25.1702 6.92078 23.0793 4.82983 20.5 4.82983C17.9207 4.82983 15.8297 6.92078 15.8297 9.50009C15.8297 12.0794 17.9207 14.1704 20.5 14.1704Z" fill="#464655"/>
<path d="M20.5 4C17.4624 4 15 6.46244 15 9.5C15 12.5376 17.4624 15 20.5 15C23.5376 15 26 12.5376 26 9.5C26 6.46244 23.5376 4 20.5 4ZM20.5 14.0517C17.9861 14.0517 15.9483 12.0138 15.9483 9.5C15.9483 6.98614 17.9861 4.94828 20.5 4.94828C23.0139 4.94828 25.0517 6.98614 25.0517 9.5C25.0517 12.0138 23.0139 14.0517 20.5 14.0517Z" fill="#707487"/>
<path d="M20.5 12.9138C22.3854 12.9138 23.9138 11.3854 23.9138 9.49998C23.9138 7.61459 22.3854 6.08618 20.5 6.08618C18.6146 6.08618 17.0862 7.61459 17.0862 9.49998C17.0862 11.3854 18.6146 12.9138 20.5 12.9138Z" fill="#5B5D6E"/>
<path d="M20.5 12.3449C18.9312 12.3449 17.6552 11.0688 17.6552 9.5001C17.6552 7.93137 18.9312 6.65527 20.5 6.65527C22.0687 6.65527 23.3448 7.93137 23.3448 9.5001C23.3448 11.0688 22.0687 12.3449 20.5 12.3449ZM20.5 7.03458C19.1405 7.03458 18.0345 8.14065 18.0345 9.5001C18.0345 10.8595 19.1405 11.9656 20.5 11.9656C21.8594 11.9656 22.9655 10.8595 22.9655 9.5001C22.9655 8.14065 21.8594 7.03458 20.5 7.03458Z" fill="#464655"/>
<path d="M20.4999 11.9655C21.8616 11.9655 22.9655 10.8616 22.9655 9.49994C22.9655 8.13827 21.8616 7.03442 20.4999 7.03442C19.1383 7.03442 18.0344 8.13827 18.0344 9.49994C18.0344 10.8616 19.1383 11.9655 20.4999 11.9655Z" fill="#D7DEED"/>
<path d="M20.5 11.5862C21.6522 11.5862 22.5862 10.6522 22.5862 9.50003C22.5862 8.34784 21.6522 7.41382 20.5 7.41382C19.3478 7.41382 18.4138 8.34784 18.4138 9.50003C18.4138 10.6522 19.3478 11.5862 20.5 11.5862Z" fill="#C7CFE2"/>
<path d="M20.5 11.207C21.4427 11.207 22.2069 10.4428 22.2069 9.50011C22.2069 8.55742 21.4427 7.79321 20.5 7.79321C19.5573 7.79321 18.7931 8.55742 18.7931 9.50011C18.7931 10.4428 19.5573 11.207 20.5 11.207Z" fill="#959CB3"/>
<path d="M20.4999 10.8275C21.2332 10.8275 21.8275 10.2332 21.8275 9.49995C21.8275 8.76674 21.2332 8.17236 20.4999 8.17236C19.7667 8.17236 19.1724 8.76674 19.1724 9.49995C19.1724 10.2332 19.7667 10.8275 20.4999 10.8275Z" fill="#AFB9D2"/>
<path d="M20.5 10.4483C21.0238 10.4483 21.4483 10.0238 21.4483 9.50003C21.4483 8.97632 21.0238 8.55176 20.5 8.55176C19.9763 8.55176 19.5518 8.97632 19.5518 9.50003C19.5518 10.0238 19.9763 10.4483 20.5 10.4483Z" fill="#82889D"/>
<path d="M20.7845 9.50012C20.9416 9.50012 21.069 9.37275 21.069 9.21564C21.069 9.05852 20.9416 8.93115 20.7845 8.93115C20.6274 8.93115 20.5 9.05852 20.5 9.21564C20.5 9.37275 20.6274 9.50012 20.7845 9.50012Z" fill="white"/>
<path d="M21.638 8.83622C21.8998 8.83622 22.1121 8.62394 22.1121 8.36208C22.1121 8.10022 21.8998 7.88794 21.638 7.88794C21.3761 7.88794 21.1638 8.10022 21.1638 8.36208C21.1638 8.62394 21.3761 8.83622 21.638 8.83622Z" fill="white"/>
<path d="M19.3621 11.0172C19.5716 11.0172 19.7414 10.8473 19.7414 10.6379C19.7414 10.4284 19.5716 10.2585 19.3621 10.2585C19.1526 10.2585 18.9828 10.4284 18.9828 10.6379C18.9828 10.8473 19.1526 11.0172 19.3621 11.0172Z" fill="#D7DEED"/>
</g>
<defs>
<clipPath id="clip0_0_1">
<rect width="11" height="11" fill="white" transform="translate(15 4)"/>
</clipPath>
</defs>
</svg>
