<svg xmlns="http://www.w3.org/2000/svg" width="25" height="25" viewBox="0 0 24 24"><path fill="white" d="M12 13.825L8.1 17.7q-.275.275-.688.288T6.7 17.7q-.275-.275-.275-.7t.275-.7l4.6-4.6q.15-.15.325-.213t.375-.062q.2 0 .375.062t.325.213l4.6 4.6q.275.275.288.688t-.288.712q-.275.275-.7.275t-.7-.275L12 13.825Zm0-6L8.1 11.7q-.275.275-.688.288T6.7 11.7q-.275-.275-.275-.7t.275-.7l4.6-4.6q.15-.15.325-.212T12 5.425q.2 0 .375.063t.325.212l4.6 4.6q.275.275.288.688t-.288.712q-.275.275-.7.275t-.7-.275L12 7.825Z"/></svg>